<svg xmlns="http://www.w3.org/2000/svg" viewBox="0 0 100 80">
  <!-- Ground shadow -->
  <ellipse cx="50" cy="77" rx="44" ry="4" fill="rgba(0,0,0,0.15)"/>

  <!-- === TIER 3 (bottom, widest) === -->
  <rect x="6" y="53" width="88" height="22" rx="3" fill="#40916C"/>
  <!-- Pilasters / separators -->
  <rect x="6"  y="53" width="4"  height="22" rx="1" fill="#2D6A4F"/>
  <rect x="27" y="53" width="4"  height="22" rx="1" fill="#2D6A4F"/>
  <rect x="48" y="53" width="4"  height="22" rx="1" fill="#2D6A4F"/>
  <rect x="69" y="53" width="4"  height="22" rx="1" fill="#2D6A4F"/>
  <rect x="90" y="53" width="4"  height="22" rx="1" fill="#2D6A4F"/>
  <!-- Arches bottom (4, perfectly spaced) -->
  <path d="M10 75 L10 63 Q10 57 16 57 L21 57 Q27 57 27 63 L27 75 Z" fill="#1B4332"/>
  <path d="M31 75 L31 63 Q31 57 37 57 L42 57 Q48 57 48 63 L48 75 Z" fill="#1B4332"/>
  <path d="M52 75 L52 63 Q52 57 58 57 L63 57 Q69 57 69 63 L69 75 Z" fill="#1B4332"/>
  <path d="M73 75 L73 63 Q73 57 79 57 L84 57 Q90 57 90 63 L90 75 Z" fill="#1B4332"/>

  <!-- === TIER 2 (middle) === -->
  <rect x="14" y="32" width="72" height="23" rx="3" fill="#52B788"/>
  <!-- Pilasters -->
  <rect x="14" y="32" width="4"  height="23" rx="1" fill="#2D6A4F"/>
  <rect x="32" y="32" width="4"  height="23" rx="1" fill="#2D6A4F"/>
  <rect x="50" y="32" width="4"  height="23" rx="1" fill="#2D6A4F"/>
  <rect x="68" y="32" width="4"  height="23" rx="1" fill="#2D6A4F"/>
  <rect x="82" y="32" width="4"  height="23" rx="1" fill="#2D6A4F"/>
  <!-- Arches middle (3) -->
  <path d="M18 55 L18 44 Q18 36 25 36 L29 36 Q36 36 36 44 L36 55 Z" fill="#1B4332"/>
  <path d="M40 55 L40 44 Q40 36 47 36 L53 36 Q60 36 60 44 L60 55 Z" fill="#1B4332"/>
  <path d="M64 55 L64 44 Q64 36 71 36 L75 36 Q82 36 82 44 L82 55 Z" fill="#1B4332"/>

  <!-- === TIER 1 (top, narrowest) === -->
  <rect x="22" y="14" width="56" height="20" rx="3" fill="#74C69D"/>
  <!-- Pilasters -->
  <rect x="22" y="14" width="4"  height="20" rx="1" fill="#2D6A4F"/>
  <rect x="38" y="14" width="4"  height="20" rx="1" fill="#2D6A4F"/>
  <rect x="54" y="14" width="4"  height="20" rx="1" fill="#2D6A4F"/>
  <rect x="70" y="14" width="4"  height="20" rx="1" fill="#2D6A4F"/>
  <rect x="74" y="14" width="4"  height="20" rx="1" fill="#2D6A4F"/>
  <!-- Arches top (2) -->
  <path d="M26 34 L26 24 Q26 18 33 18 L37 18 Q44 18 44 24 L44 34 Z" fill="#1B4332"/>
  <path d="M56 34 L56 24 Q56 18 63 18 L67 18 Q74 18 74 24 L74 34 Z" fill="#1B4332"/>

  <!-- === Crenellations / merlons (top) === -->
  <rect x="24" y="8"  width="7" height="8" rx="1" fill="#95D5B2"/>
  <rect x="35" y="8"  width="7" height="8" rx="1" fill="#95D5B2"/>
  <rect x="46" y="8"  width="7" height="8" rx="1" fill="#95D5B2"/>
  <rect x="57" y="8"  width="7" height="8" rx="1" fill="#95D5B2"/>
  <rect x="68" y="8"  width="7" height="8" rx="1" fill="#95D5B2"/>

  <!-- Top edge line -->
  <rect x="22" y="13" width="56" height="2" rx="1" fill="#52B788"/>
</svg>
